<svg id="_0145_404_page_not_found" xmlns="http://www.w3.org/2000/svg" viewBox="0 0 500 500" data-imageid="404-page-not-found-62" imageName="404 Page Not Found" class="illustrations_image" style="width: 166px;"><defs><style>.cls-1_404-page-not-found-62{opacity:.45;}.cls-1_404-page-not-found-62,.cls-2_404-page-not-found-62,.cls-3_404-page-not-found-62,.cls-4_404-page-not-found-62,.cls-5_404-page-not-found-62,.cls-6_404-page-not-found-62,.cls-7_404-page-not-found-62{fill:none;}.cls-8_404-page-not-found-62{fill:#fff;}.cls-2_404-page-not-found-62{opacity:.39;}.cls-9_404-page-not-found-62{fill:#f4a28c;}.cls-10_404-page-not-found-62{fill:#a5a5a5;}.cls-3_404-page-not-found-62{opacity:.58;}.cls-11_404-page-not-found-62{fill:#ce8172;}.cls-12_404-page-not-found-62{fill:#e6e6e6;}.cls-4_404-page-not-found-62{opacity:.03;}.cls-5_404-page-not-found-62{opacity:.73;}.cls-6_404-page-not-found-62{opacity:.08;}.cls-7_404-page-not-found-62{opacity:.31;}.cls-13_404-page-not-found-62{fill:#24285b;}.cls-14_404-page-not-found-62{fill:#000001;}.cls-15_404-page-not-found-62{fill:#ffd200;}.cls-16_404-page-not-found-62{fill:#68e1fd;}</style></defs><g id="screen_error_404-page-not-found-62"><rect class="cls-10_404-page-not-found-62" x="87.48" y="67.36" width="358.45" height="59.28"/><rect class="cls-12_404-page-not-found-62" x="87.48" y="126.59" width="358.45" height="234.78"/><g class="cls-6_404-page-not-found-62"><polygon class="cls-14_404-page-not-found-62" points="432.24 309.34 404.93 348.17 430.63 348.17 430.63 361.37 445.93 361.37 444.96 314.01 432.24 309.34"/></g><g class="cls-6_404-page-not-found-62"><path class="cls-14_404-page-not-found-62" d="m91.97,186.63s7.43-5.01,10.9,13.37c3.48,18.38-6.73,34,17.71,37.78,24.44,3.78,40.41-6.54,46.04,22.79,5.63,29.33,37.37,42.59,26.52,69.11-10.85,26.52-19.89,31.69-19.89,31.69h-85.78s-.65-164.29,4.49-174.74Z"/></g><circle class="cls-13_404-page-not-found-62" cx="118.04" cy="98.76" r="8.52"/><circle class="cls-16_404-page-not-found-62 targetColor" cx="143.39" cy="98.76" r="8.52" style="fill: rgb(1, 138, 189);"/><circle class="cls-15_404-page-not-found-62" cx="167.28" cy="98.76" r="8.52"/><path class="cls-8_404-page-not-found-62" d="m163.73,224.2c-1.95-1.95-1.95-5.1,0-7.05l29.73-29.73c1.95-1.95,5.1-1.95,7.05,0,1.95,1.95,1.95,5.1,0,7.05l-29.73,29.73c-1.95,1.95-5.1,1.95-7.05,0Z"/><path class="cls-8_404-page-not-found-62" d="m193.94,224.68l-29.73-29.73c-1.95-1.95-1.95-5.1,0-7.05,1.95-1.95,5.1-1.95,7.05,0l29.73,29.73c1.95,1.95,1.95,5.1,0,7.05-1.95,1.95-5.1,1.95-7.05,0Z"/><path class="cls-8_404-page-not-found-62" d="m328.61,224.2c-1.95-1.95-1.95-5.1,0-7.05l29.73-29.73c1.95-1.95,5.1-1.95,7.05,0s1.95,5.1,0,7.05l-29.73,29.73c-1.95,1.95-5.1,1.95-7.05,0Z"/><path class="cls-8_404-page-not-found-62" d="m358.82,224.68l-29.73-29.73c-1.95-1.95-1.95-5.1,0-7.05,1.95-1.95,5.1-1.95,7.05,0l29.73,29.73c1.95,1.95,1.95,5.1,0,7.05-1.95,1.95-5.1,1.95-7.05,0Z"/><path class="cls-8_404-page-not-found-62" d="m225.16,309.34c-2.57,0-4.75-1.97-4.96-4.58-1.39-16.99,5.05-50.39,39.34-55.24,10.7-1.51,19.66.95,26.59,7.32,16.29,14.99,14.69,46.47,14.62,47.8-.16,2.75-2.49,4.86-5.26,4.69-2.75-.16-4.85-2.51-4.69-5.26.02-.28,1.4-28.13-11.42-39.9-4.69-4.31-10.72-5.87-18.43-4.78-33.66,4.76-30.93,42.94-30.8,44.56.22,2.74-1.82,5.15-4.56,5.38-.14,0-.27.02-.41.02Z"/><g class="cls-6_404-page-not-found-62"><rect class="cls-14_404-page-not-found-62" x="374.28" y="142.92" width="71.65" height="24.69"/></g></g><g id="_404_404-page-not-found-62"><rect class="cls-13_404-page-not-found-62" x="350.32" y="46.95" width="133.28" height="100.69"/><path class="cls-8_404-page-not-found-62" d="m399.85,102.29c.57,0,.96.11,1.18.34s.33.62.33,1.18v1.92c0,.57-.1.96-.31,1.18-.21.22-.61.34-1.21.34h-3.08v5.85c0,.57-.11.96-.33,1.18-.22.22-.62.34-1.18.34h-2.19c-.57,0-.96-.11-1.18-.34-.22-.22-.33-.62-.33-1.18v-5.85h-14.75c-.57,0-.96-.11-1.18-.34-.22-.22-.33-.62-.33-1.18v-1.61c0-.74.18-1.36.54-1.83l14.84-18.41c.6-.71,1.31-1.07,2.15-1.07h2.46c.57,0,.96.1,1.18.31.22.21.33.61.33,1.21v17.97h3.08Zm-8.31-11.98l-9.7,11.98h9.7v-11.98Z"/><path class="cls-8_404-page-not-found-62" d="m404.81,93c0-3.31,1.04-5.93,3.13-7.87,2.08-1.94,4.99-2.91,8.71-2.91s6.62.97,8.69,2.91c2.07,1.94,3.11,4.56,3.11,7.87v11.49c0,3.34-1.04,5.97-3.11,7.91-2.07,1.94-4.97,2.91-8.69,2.91s-6.63-.97-8.71-2.91c-2.09-1.94-3.13-4.57-3.13-7.91v-11.49Zm18.06,0c0-1.76-.54-3.12-1.63-4.09-1.09-.97-2.61-1.45-4.58-1.45s-3.49.48-4.58,1.45c-1.09.97-1.63,2.33-1.63,4.09v11.49c0,1.76.54,3.13,1.63,4.11s2.61,1.47,4.58,1.47,3.49-.49,4.58-1.47,1.63-2.35,1.63-4.11v-11.49Z"/><path class="cls-8_404-page-not-found-62" d="m456.38,102.29c.57,0,.96.11,1.18.34s.33.62.33,1.18v1.92c0,.57-.1.96-.31,1.18-.21.22-.61.34-1.21.34h-3.08v5.85c0,.57-.11.96-.33,1.18-.22.22-.62.34-1.18.34h-2.19c-.57,0-.96-.11-1.18-.34-.22-.22-.33-.62-.33-1.18v-5.85h-14.75c-.57,0-.96-.11-1.18-.34-.22-.22-.33-.62-.33-1.18v-1.61c0-.74.18-1.36.54-1.83l14.84-18.41c.6-.71,1.31-1.07,2.15-1.07h2.46c.57,0,.96.1,1.18.31.22.21.33.61.33,1.21v17.97h3.08Zm-8.31-11.98l-9.7,11.98h9.7v-11.98Z"/></g><g id="sd_404-page-not-found-62" class="cls-4_404-page-not-found-62"><ellipse class="cls-14_404-page-not-found-62" cx="106.3" cy="455.09" rx="93.24" ry="13.35"/></g><g id="person_404-page-not-found-62"><path class="cls-16_404-page-not-found-62 targetColor" d="m47.98,442.71s-1.93,5.37-6.79,5.79c-4.86.41-6.13,5.16-1.76,6.4,4.37,1.24,15.63-4.38,15.63-4.38l-.32-7.01-6.76-.8Z" style="fill: rgb(1, 138, 189);"/><path class="cls-16_404-page-not-found-62 targetColor" d="m114.71,442.71s1.93,5.37,6.79,5.79c4.86.41,6.13,5.16,1.76,6.4-4.37,1.24-15.63-4.38-15.63-4.38l.32-7.01,6.76-.8Z" style="fill: rgb(1, 138, 189);"/><path class="cls-16_404-page-not-found-62 targetColor" d="m120.93,227.66s34.66,7,31.78,39.27,28.63,50.02,9.33,68.69c-19.3,18.66-45,8.17-45,8.17l3.9-116.12Z" style="fill: rgb(1, 138, 189);"/><g class="cls-2_404-page-not-found-62"><path class="cls-8_404-page-not-found-62" d="m120.93,227.66s34.66,7,31.78,39.27,28.63,50.02,9.33,68.69c-19.3,18.66-45,8.17-45,8.17l3.9-116.12Z"/></g><path class="cls-9_404-page-not-found-62" d="m92.27,195.65s2.66,6.77,2.86,11.73c.08,2.01-1.51,3.74-3.53,3.79-2.5.06-5.9-.58-7.77-4.03l-3.88-5.47s-2.31-3.51.78-7.5c3.09-3.99,10.13-2.72,11.54,1.48Z"/><polygon class="cls-9_404-page-not-found-62" points="81.7 203.04 82.01 226.86 95.12 225.75 89.63 208.87 81.7 203.04"/><path class="cls-13_404-page-not-found-62" d="m80.65,207.33h0c.09.3.37.5.69.49,1.13-.05,3.69-.52,4.61-3.59,1.19-3.99-1.89-6.38-1.89-6.38,3.14-.33,5.37-.98,6.57-1.41.72-.25,1.4-.58,2-1.05l.25-5.76s1.32-6.08-2.09-6.3c-3.42-.23-3.84,3.71-7.08,1.9s-4.08-2.6-6.28-.46c-2.2,2.13,1.34,3.33-2.9,4.53-4.24,1.2-3.83,2.97-3.31,4.92.13.49.64,1.02,1.32,1.54,3.85,2.95,6.8,6.91,8.12,11.58Z"/><path class="cls-9_404-page-not-found-62" d="m86.63,203.81s-.85-2.67-2.8-1.86c-1.95.8-.76,4.66,2.09,4.22l.71-2.35Z"/><path class="cls-9_404-page-not-found-62" d="m93.73,200l2.74,2.11c.68.52.58,1.57-.18,1.96l-2.52,1.29-.04-5.36Z"/><g class="cls-7_404-page-not-found-62"><path class="cls-11_404-page-not-found-62" d="m90.32,211.13s-1.68.16-5.28-1.69c0,0,.81,4.68,6.94,6.64l-1.65-4.95Z"/></g><path class="cls-16_404-page-not-found-62 targetColor" d="m106.76,224.55c-16.51.28-38.78,3.18-62.85,13.44-12.87,5.48-18.51,20.65-12.24,33.16l34.2,68.21,63.4-3.75s11.54-38.33,9.22-81.71c-.89-16.72-15-29.64-31.74-29.35Z" style="fill: rgb(1, 138, 189);"/><path class="cls-13_404-page-not-found-62" d="m65.87,339.36l-18.95,104.32h9.47s23.75-56.64,23.75-56.64c8.41-20.06,23.24-36.76,42.16-47.48l6.97-3.95-63.4,3.75Z"/><g class="cls-6_404-page-not-found-62"><path class="cls-14_404-page-not-found-62" d="m60.64,247.05s14.95,11.06,12.07,30.81c-2.89,19.75-5.86,35.1,12.33,30.51,18.19-4.59,28.06-46.95,28.06-46.95l21.25.52-3.67,47.25-12.32.85c-5.99.41-10.97,4.78-12.15,10.67l-3.32,16.47-37.01,2.19-5.24-7.78-23.08-25.05-2.89-39.87,25.97-19.61Z"/></g><rect class="cls-15_404-page-not-found-62" x="87.61" y="247.65" width="41.18" height="56.4" transform="translate(197.44 558.39) rotate(-176.11)"/><path class="cls-13_404-page-not-found-62" d="m129.28,335.61l-9.79,108.07h-12.59s2.94-81.32-19.78-98.63l42.15-9.44Z"/><path class="cls-16_404-page-not-found-62 targetColor" d="m62.05,253.17c-.5-14.52-18.67-20.46-27.64-9.03-7.27,9.28-13.97,24.76-13.42,50.2,1.18,54.3,33.05,68.86,82.23,9.44l-9.68-7.48s-19.38,16.43-37.11,16.68c-13.2.18,6.52-33.9,5.62-59.81Z" style="fill: rgb(1, 138, 189);"/><g class="cls-2_404-page-not-found-62"><path class="cls-8_404-page-not-found-62" d="m62.05,253.17c-.5-14.52-18.67-20.46-27.64-9.03-7.27,9.28-13.97,24.76-13.42,50.2,1.18,54.3,33.05,68.86,82.23,9.44l-9.68-7.48s-19.38,16.43-37.11,16.68c-13.2.18,6.52-33.9,5.62-59.81Z"/></g><g class="cls-6_404-page-not-found-62"><path class="cls-14_404-page-not-found-62" d="m128.91,274.81s-14.1,26.01-42.54,18.67l-.62,9.1,41.08,2.79,2.08-30.56Z"/></g><path class="cls-9_404-page-not-found-62" d="m95.32,297.67s5.79-10.22,12.88-7.52-4.97,13.63-4.97,13.63l-7.91-6.11Z"/></g><g id="plant_404-page-not-found-62"><g class="cls-3_404-page-not-found-62"><path class="cls-16_404-page-not-found-62 targetColor" d="m159.12,438.1s-13.4-3.66-16.32-16.13c0,0,20.76-4.2,21.36,17.24l-5.04-1.1Z" style="fill: rgb(1, 138, 189);"/></g><g class="cls-5_404-page-not-found-62"><path class="cls-16_404-page-not-found-62 targetColor" d="m160.76,436.78s-9.36-14.8-1.12-28.64c0,0,15.79,10.03,8.77,28.67l-7.65-.03Z" style="fill: rgb(1, 138, 189);"/></g><path class="cls-16_404-page-not-found-62 targetColor" d="m163.18,436.79s4.95-15.63,19.9-18.59c0,0,2.8,10.15-9.68,18.64l-10.22-.04Z" style="fill: rgb(1, 138, 189);"/><polygon class="cls-13_404-page-not-found-62" points="153.46 436.43 156.17 455.02 173.28 455.09 175.81 436.53 153.46 436.43"/></g><g id="warning_404-page-not-found-62"><g class="cls-1_404-page-not-found-62"><ellipse class="cls-12_404-page-not-found-62" cx="446.08" cy="455.09" rx="38.19" ry="8.39"/></g><rect class="cls-12_404-page-not-found-62" x="439.87" y="327.94" width="10.18" height="102.48"/><polygon class="cls-15_404-page-not-found-62" points="445.93 273.97 404.93 336.78 445.93 336.78 486.94 336.78 445.93 273.97"/><rect class="cls-13_404-page-not-found-62" x="430.63" y="421.64" width="29.74" height="33.45"/><rect class="cls-13_404-page-not-found-62" x="442.69" y="297.34" width="5.83" height="18.89"/><rect class="cls-13_404-page-not-found-62" x="442.69" y="319.9" width="5.83" height="5.83"/></g></svg>